<mxfile host="Electron" modified="2023-05-20T14:45:21.078Z" agent="Mozilla/5.0 (Windows NT 10.0; Win64; x64) AppleWebKit/537.36 (KHTML, like Gecko) draw.io/21.2.1 Chrome/112.0.5615.87 Electron/24.1.2 Safari/537.36" etag="_wF2N1wsSS7utvtLsSS0" version="21.2.1" type="device">
  <diagram id="prtHgNgQTEPvFCAcTncT" name="Page-1">
    <mxGraphModel dx="1050" dy="671" grid="1" gridSize="10" guides="1" tooltips="1" connect="1" arrows="1" fold="1" page="1" pageScale="1" pageWidth="827" pageHeight="1169" math="0" shadow="0">
      <root>
        <mxCell id="0" />
        <mxCell id="1" parent="0" />
        <mxCell id="Z0wxGnbXU9YK-LR7LkKU-1" value="管理员" style="rounded=0;whiteSpace=wrap;html=1;strokeColor=#0F8B8D;fontSize=16;fontColor=#143642;fillColor=#FAE5C7;labelBackgroundColor=none;" parent="1" vertex="1">
          <mxGeometry x="330" y="280" width="120" height="60" as="geometry" />
        </mxCell>
        <mxCell id="Z0wxGnbXU9YK-LR7LkKU-2" value="更新时间" style="ellipse;whiteSpace=wrap;html=1;strokeColor=#0F8B8D;fontSize=16;fontColor=#143642;fillColor=#FAE5C7;labelBackgroundColor=none;" parent="1" vertex="1">
          <mxGeometry x="500" y="370" width="80" height="60" as="geometry" />
        </mxCell>
        <mxCell id="Z0wxGnbXU9YK-LR7LkKU-7" value="标志" style="ellipse;whiteSpace=wrap;html=1;strokeColor=#0F8B8D;fontSize=16;fontColor=#143642;fillColor=#FAE5C7;labelBackgroundColor=none;" parent="1" vertex="1">
          <mxGeometry x="560" y="280" width="80" height="60" as="geometry" />
        </mxCell>
        <mxCell id="Z0wxGnbXU9YK-LR7LkKU-8" value="创建时间" style="ellipse;whiteSpace=wrap;html=1;strokeColor=#0F8B8D;fontSize=16;fontColor=#143642;fillColor=#FAE5C7;labelBackgroundColor=none;" parent="1" vertex="1">
          <mxGeometry x="350" y="410" width="80" height="60" as="geometry" />
        </mxCell>
        <mxCell id="Z0wxGnbXU9YK-LR7LkKU-9" value="状态" style="ellipse;whiteSpace=wrap;html=1;strokeColor=#0F8B8D;fontSize=16;fontColor=#143642;fillColor=#FAE5C7;labelBackgroundColor=none;" parent="1" vertex="1">
          <mxGeometry x="200" y="370" width="80" height="60" as="geometry" />
        </mxCell>
        <mxCell id="Z0wxGnbXU9YK-LR7LkKU-10" value="昵称" style="ellipse;whiteSpace=wrap;html=1;strokeColor=#0F8B8D;fontSize=16;fontColor=#143642;fillColor=#FAE5C7;labelBackgroundColor=none;" parent="1" vertex="1">
          <mxGeometry x="150" y="280" width="80" height="60" as="geometry" />
        </mxCell>
        <mxCell id="Z0wxGnbXU9YK-LR7LkKU-11" value="姓名" style="ellipse;whiteSpace=wrap;html=1;strokeColor=#0F8B8D;fontSize=16;fontColor=#143642;fillColor=#FAE5C7;labelBackgroundColor=none;" parent="1" vertex="1">
          <mxGeometry x="200" y="200" width="80" height="60" as="geometry" />
        </mxCell>
        <mxCell id="Z0wxGnbXU9YK-LR7LkKU-12" value="ID" style="ellipse;whiteSpace=wrap;html=1;strokeColor=#0F8B8D;fontSize=16;fontColor=#143642;fillColor=#FAE5C7;labelBackgroundColor=none;" parent="1" vertex="1">
          <mxGeometry x="350" y="150" width="80" height="60" as="geometry" />
        </mxCell>
        <mxCell id="Z0wxGnbXU9YK-LR7LkKU-13" value="密码" style="ellipse;whiteSpace=wrap;html=1;strokeColor=#0F8B8D;fontSize=16;fontColor=#143642;fillColor=#FAE5C7;labelBackgroundColor=none;" parent="1" vertex="1">
          <mxGeometry x="500" y="190" width="80" height="60" as="geometry" />
        </mxCell>
        <mxCell id="Z0wxGnbXU9YK-LR7LkKU-14" value="" style="endArrow=none;html=1;rounded=0;strokeColor=#A8201A;fontSize=12;fontColor=default;startSize=8;endSize=8;fillColor=#FAE5C7;curved=1;entryX=0.5;entryY=1;entryDx=0;entryDy=0;exitX=0.5;exitY=0;exitDx=0;exitDy=0;labelBackgroundColor=none;" parent="1" source="Z0wxGnbXU9YK-LR7LkKU-1" target="Z0wxGnbXU9YK-LR7LkKU-12" edge="1">
          <mxGeometry width="50" height="50" relative="1" as="geometry">
            <mxPoint x="260" y="360" as="sourcePoint" />
            <mxPoint x="310" y="310" as="targetPoint" />
          </mxGeometry>
        </mxCell>
        <mxCell id="Z0wxGnbXU9YK-LR7LkKU-15" value="" style="endArrow=none;html=1;rounded=0;strokeColor=#A8201A;fontSize=12;fontColor=default;startSize=8;endSize=8;fillColor=#FAE5C7;curved=1;entryX=0.5;entryY=1;entryDx=0;entryDy=0;exitX=1;exitY=0;exitDx=0;exitDy=0;labelBackgroundColor=none;" parent="1" source="Z0wxGnbXU9YK-LR7LkKU-1" target="Z0wxGnbXU9YK-LR7LkKU-13" edge="1">
          <mxGeometry width="50" height="50" relative="1" as="geometry">
            <mxPoint x="260" y="360" as="sourcePoint" />
            <mxPoint x="310" y="310" as="targetPoint" />
          </mxGeometry>
        </mxCell>
        <mxCell id="Z0wxGnbXU9YK-LR7LkKU-16" value="" style="endArrow=none;html=1;rounded=0;strokeColor=#A8201A;fontSize=12;fontColor=default;startSize=8;endSize=8;fillColor=#FAE5C7;curved=1;entryX=0.5;entryY=1;entryDx=0;entryDy=0;exitX=0;exitY=0;exitDx=0;exitDy=0;labelBackgroundColor=none;" parent="1" source="Z0wxGnbXU9YK-LR7LkKU-1" target="Z0wxGnbXU9YK-LR7LkKU-11" edge="1">
          <mxGeometry width="50" height="50" relative="1" as="geometry">
            <mxPoint x="260" y="360" as="sourcePoint" />
            <mxPoint x="310" y="310" as="targetPoint" />
          </mxGeometry>
        </mxCell>
        <mxCell id="Z0wxGnbXU9YK-LR7LkKU-17" value="" style="endArrow=none;html=1;rounded=0;strokeColor=#A8201A;fontSize=12;fontColor=default;startSize=8;endSize=8;fillColor=#FAE5C7;curved=1;entryX=0;entryY=0.5;entryDx=0;entryDy=0;exitX=1;exitY=0.5;exitDx=0;exitDy=0;labelBackgroundColor=none;" parent="1" source="Z0wxGnbXU9YK-LR7LkKU-10" target="Z0wxGnbXU9YK-LR7LkKU-1" edge="1">
          <mxGeometry width="50" height="50" relative="1" as="geometry">
            <mxPoint x="260" y="360" as="sourcePoint" />
            <mxPoint x="310" y="310" as="targetPoint" />
          </mxGeometry>
        </mxCell>
        <mxCell id="Z0wxGnbXU9YK-LR7LkKU-18" value="" style="endArrow=none;html=1;rounded=0;strokeColor=#A8201A;fontSize=12;fontColor=default;startSize=8;endSize=8;fillColor=#FAE5C7;curved=1;entryX=0;entryY=0.5;entryDx=0;entryDy=0;exitX=1;exitY=0.5;exitDx=0;exitDy=0;labelBackgroundColor=none;" parent="1" source="Z0wxGnbXU9YK-LR7LkKU-1" target="Z0wxGnbXU9YK-LR7LkKU-7" edge="1">
          <mxGeometry width="50" height="50" relative="1" as="geometry">
            <mxPoint x="260" y="360" as="sourcePoint" />
            <mxPoint x="310" y="310" as="targetPoint" />
          </mxGeometry>
        </mxCell>
        <mxCell id="Z0wxGnbXU9YK-LR7LkKU-19" value="" style="endArrow=none;html=1;rounded=0;strokeColor=#A8201A;fontSize=12;fontColor=default;startSize=8;endSize=8;fillColor=#FAE5C7;curved=1;entryX=0;entryY=1;entryDx=0;entryDy=0;exitX=1;exitY=0.5;exitDx=0;exitDy=0;labelBackgroundColor=none;" parent="1" source="Z0wxGnbXU9YK-LR7LkKU-9" target="Z0wxGnbXU9YK-LR7LkKU-1" edge="1">
          <mxGeometry width="50" height="50" relative="1" as="geometry">
            <mxPoint x="260" y="360" as="sourcePoint" />
            <mxPoint x="310" y="310" as="targetPoint" />
          </mxGeometry>
        </mxCell>
        <mxCell id="Z0wxGnbXU9YK-LR7LkKU-20" value="" style="endArrow=none;html=1;rounded=0;strokeColor=#A8201A;fontSize=12;fontColor=default;startSize=8;endSize=8;fillColor=#FAE5C7;curved=1;entryX=0.5;entryY=1;entryDx=0;entryDy=0;exitX=0.5;exitY=0;exitDx=0;exitDy=0;labelBackgroundColor=none;" parent="1" source="Z0wxGnbXU9YK-LR7LkKU-8" target="Z0wxGnbXU9YK-LR7LkKU-1" edge="1">
          <mxGeometry width="50" height="50" relative="1" as="geometry">
            <mxPoint x="260" y="360" as="sourcePoint" />
            <mxPoint x="310" y="310" as="targetPoint" />
          </mxGeometry>
        </mxCell>
        <mxCell id="Z0wxGnbXU9YK-LR7LkKU-21" value="" style="endArrow=none;html=1;rounded=0;strokeColor=#A8201A;fontSize=12;fontColor=default;startSize=8;endSize=8;fillColor=#FAE5C7;curved=1;entryX=1;entryY=1;entryDx=0;entryDy=0;exitX=0;exitY=0;exitDx=0;exitDy=0;labelBackgroundColor=none;" parent="1" source="Z0wxGnbXU9YK-LR7LkKU-2" target="Z0wxGnbXU9YK-LR7LkKU-1" edge="1">
          <mxGeometry width="50" height="50" relative="1" as="geometry">
            <mxPoint x="260" y="360" as="sourcePoint" />
            <mxPoint x="310" y="310" as="targetPoint" />
          </mxGeometry>
        </mxCell>
      </root>
    </mxGraphModel>
  </diagram>
</mxfile>
